<?xml version="1.0" encoding="UTF-8" standalone="no"?>
<svg
   xmlns:dc="http://purl.org/dc/elements/1.1/"
   xmlns:cc="http://creativecommons.org/ns#"
   xmlns:rdf="http://www.w3.org/1999/02/22-rdf-syntax-ns#"
   xmlns:svg="http://www.w3.org/2000/svg"
   xmlns="http://www.w3.org/2000/svg"
   xmlns:sodipodi="http://sodipodi.sourceforge.net/DTD/sodipodi-0.dtd"
   xmlns:inkscape="http://www.inkscape.org/namespaces/inkscape"
   viewBox="0 0 388.8026 117.26587"
   version="1.1"
   id="svg40"
   sodipodi:docname="interscity_logo_with_slogan.svg"
   inkscape:version="0.92.1 r15371"
   width="388.80264"
   height="117.26587">
  <metadata
     id="metadata44">
    <rdf:RDF>
      <cc:Work
         rdf:about="">
        <dc:format>image/svg+xml</dc:format>
        <dc:type
           rdf:resource="http://purl.org/dc/dcmitype/StillImage" />
        <dc:title>Ativo 4</dc:title>
      </cc:Work>
    </rdf:RDF>
  </metadata>
  <sodipodi:namedview
     pagecolor="#ffffff"
     bordercolor="#666666"
     borderopacity="1"
     objecttolerance="10"
     gridtolerance="10"
     guidetolerance="10"
     inkscape:pageopacity="0"
     inkscape:pageshadow="2"
     inkscape:window-width="1615"
     inkscape:window-height="1026"
     id="namedview42"
     showgrid="false"
     inkscape:zoom="1.314942"
     inkscape:cx="133.90796"
     inkscape:cy="53.658261"
     inkscape:window-x="65"
     inkscape:window-y="24"
     inkscape:window-maximized="1"
     inkscape:current-layer="svg40"
     showguides="true"
     inkscape:guide-bbox="true"
     units="px"
     fit-margin-top="0"
     fit-margin-left="0"
     fit-margin-right="0"
     fit-margin-bottom="0" />
  <defs
     id="defs4">
    <style
       id="style2">.cls-1{fill:#fff;}</style>
  </defs>
  <title
     id="title6">Ativo 4</title>
  <g
     id="g200"
     style="fill:#00998c;fill-opacity:1">
    <g
       id="g150"
       style="fill:#00998c;fill-opacity:1">
      <path
         class="cls-1"
         d="m 94.86621,42.32233 a 2.48,2.48 0 0 0 -1.15,-0.3 l -3,-11.66 a 2.5,2.5 0 0 0 -1.81,-4.64 l -3.19,-5.9 a 2.48,2.48 0 0 0 0.43,-0.55 2.5,2.5 0 0 0 -3.7,-3.2 l -5.93,-4.76 a 2.5,2.5 0 0 0 -4.21,-2.6300005 l -12.02,-5.69 a 2.5,2.5 0 0 0 -4.64,-1.7 2.48,2.48 0 0 0 -0.25,0.71 l -19.17,0.57 a 2.5028184,2.5028184 0 0 0 -4.8,1.42 l -15.63,10.0000005 a 2.48,2.48 0 0 0 -0.54,-0.41 2.51,2.51 0 0 0 -2.85,4.09 l -7.65,14.32 a 2.5013996,2.5013996 0 0 0 -1.34,4.82 l -1.19,21 a 2.5,2.5 0 1 0 0.84,4.92 l 5.08,12.45 a 2.48,2.48 0 0 0 -0.7,0.81 2.5,2.5 0 0 0 3.25,3.47 l 9,11.5 a 2.51,2.51 0 1 0 4.08,2.86 2.46,2.46 0 0 0 0.1,-0.24 l 19,2.34 a 2.5,2.5 0 0 0 4.93,-0.41 l 15.53,-3.78 a 2.5,2.5 0 1 0 4.64,-1.84 l 12.35,-7.75 a 2.48,2.48 0 0 0 0.3,0.2 2.5,2.5 0 0 0 3,-3.9 l 8.32,-15.08 a 2.5048004,2.5048004 0 0 0 1.4,-4.81 l 0.8,-11.56 a 2.5,2.5 0 0 0 0.74,-4.65 z m -12.13,35.51 -0.29,-0.09 -0.3,-25.51 a 2.5,2.5 0 0 0 0.71,-0.3 l 7.64,7.69 -0.08,0.12 a 2.5,2.5 0 0 0 0.53,3.07 z m -69.33,-59.69 a 2.48,2.48 0 0 0 0.47,0.08 l 4.71,28.77 a 2.49,2.49 0 0 0 -0.41,0.21 l -9.54,-9.21 -2.37,-2.26 v -0.07 a 2.51,2.51 0 0 0 -0.56,-3.09 z m 68.33,-1.2 a 2.49,2.49 0 0 0 -0.11,2 l -6.73,3.57 a 2.34,2.34 0 0 0 -1.1,-0.73 l 0.27,-3 0.56,-6.13 a 2.51,2.51 0 0 0 1.2,-0.5 z m -2.08,62.05 a 2.48,2.48 0 0 0 -0.24,0.66 l -29.18,-3.77 a 2.51,2.51 0 0 0 -0.22,-0.8 l 30,-23.33 a 2.25,2.25 0 0 0 1,0.49 l 0.3,25.49 a 2.49,2.49 0 0 0 -1.66,1.26 z m -54.32,-3.35 a 2.49,2.49 0 0 0 -2.19,-1.92 l -2.74,-22.13 a 2.5,2.5 0 0 0 0.5,-0.25 l 13.93,13.28 10.76,10.25 v 0.07 a 2.48,2.48 0 0 0 -0.23,0.64 h -11.53 z m 14.42,-59.73 9.59,26.82 a 2.43,2.43 0 0 0 -0.81,2 l -7.41,1 -19.25,2.64 a 2.49,2.49 0 0 0 -0.65,-1 l 17.55,-31.54 a 2.49,2.49 0 0 0 0.98,0.08 z m 39.3,34.08 a 2.51,2.51 0 0 0 0.23,0.86 l -30,23.33 a 2.21,2.21 0 0 0 -0.77,-0.42 l 0.82,-8.43 1.81,-18.26 a 2.49,2.49 0 0 0 1.95,-1.08 h 0.13 z m -57,-0.5 26.86,-3.62 a 2.48,2.48 0 0 0 0.93,0.91 l 0.2,0.09 -1,10 -1.63,16.79 a 2.51,2.51 0 0 0 -1,0.39 l -24.72,-23.53 v -0.07 a 2.5,2.5 0 0 0 0.34,-0.96 z m 48.46,-25.5 a 2.51,2.51 0 0 0 0.33,1.45 l -18.3,17.16 a 2.39,2.39 0 0 0 -2.2,-0.43 l -9.53,-26.65 a 2.48,2.48 0 0 0 0.79,-0.82 l 22,7 z m 9.73,23.69 a 2.17,2.17 0 0 0 -1,1.2 l -25.72,-4 a 2.51,2.51 0 0 0 -0.24,-1.42 h 0.05 l 18.31,-17.2 0.18,0.12 a 2.5,2.5 0 0 0 1.44,0.3 l 2.4,7.22 z m -42.46,-32.4 -17.56,31.57 a 2.48,2.48 0 0 0 -0.52,-0.09 l -4.71,-28.77 a 2.44,2.44 0 0 0 1.52,-2 l 20.57,-1.86 a 2.49,2.49 0 0 0 0.7,1.15 z m 33.36,7.2 a 2.51,2.51 0 0 0 -0.28,0.39 l -28.9,-9.25 a 2.51,2.51 0 0 0 -0.11,-1 l 14.19,-8.3900005 a 2.48,2.48 0 0 0 0.6,0.47 2.49,2.49 0 0 0 2.13,0.12 l 8.15,11.6300005 z m -46,54.91 a 2.48,2.48 0 0 0 0.22,-0.62 l 20,-0.06 a 2.33,2.33 0 0 0 1.53,1.75 v 0.14 l -2,14.31 a 2.49,2.49 0 0 0 -1.26,0.68 l -16.82,-14.7 z m 66.32,-34.08 a 2.48,2.48 0 0 0 -0.32,1.59 l -2.9,1.29 -4.7,2.11 a 2.49,2.49 0 0 0 -0.62,-0.57 l 3.71,-10 2.64,-7.11 a 2.48,2.48 0 0 0 0.37,0 l 3,11.62 a 2.49,2.49 0 0 0 -1.18,1.07 z m -4.32,-15.19 a 2.49,2.49 0 0 0 1.12,2.1 l -6.4,17.1 a 2.5,2.5 0 0 0 -0.55,0 l -7,-21 a 2.48,2.48 0 0 0 0.89,-0.92 v -0.08 l 4.38,1.05 z m -14,-15.7 a 2.5,2.5 0 0 0 0.42,0.18 l -0.23,2.48 -0.6,6.6 a 2.51,2.51 0 0 0 -0.59,0.16 l -9.38,-13.3000005 -3.06,-4.37 0.1,-0.12 12,5.66 a 2.5,2.5 0 0 0 1.27,2.7100005 z m -17.69,-9.1700005 -14.19,8.4400005 a 2.44,2.44 0 0 0 -2.52,-0.7 l -1,-1.7600005 -2.29,-4 a 2.42,2.42 0 0 0 0.88,-1.58 l 19.1,-0.57 z m -50,33.2900005 4.21,4 7.72,7.45 v 0.07 a 2.49,2.49 0 0 0 -0.14,2.07 l -12.87,8.42 a 2.48,2.48 0 0 0 -0.52,-0.39 2.5,2.5 0 0 0 -0.5,-0.2 l 1.19,-21 a 2.5,2.5 0 0 0 0.93,-0.42 z m -0.54,24.87 a 2.49,2.49 0 0 0 0.08,-1.91 l 2.67,-1.76 10.15,-6.68 a 2.4,2.4 0 0 0 1.46,0.68 l 2.77,22.13 a 2.5,2.5 0 0 0 -0.71,0.39 l -11.43,-8.94 z m 41.62,31.75 a 2.49,2.49 0 0 0 -0.56,-0.22 l 2,-14.32 a 2.51,2.51 0 0 0 1.34,-0.54 l 6.83,5.43 7.55,6 a 2.11,2.11 0 0 0 -0.45,1.13 l -15.6,3.8 a 2.48,2.48 0 0 0 -1.11,-1.28 z m 20.39,-4.43 a 2.5,2.5 0 0 0 -2.38,0 l -8.58,-6.8 -6,-4.72 0.08,-0.19 21.71,2.79 7.63,1 a 2.51,2.51 0 0 0 0.19,0.52 l -12.26,7.66 a 2.51,2.51 0 0 0 -0.39,-0.26 z m 24.38,-29.9 -7.64,-7.69 0.08,-0.15 a 2.48,2.48 0 0 0 0.25,-1.67 l 7.62,-3.33 a 2.39,2.39 0 0 0 1.37,1 l -0.77,11.5 a 2.5,2.5 0 0 0 -0.91,0.34 z m -3.37,-32.56 a 2.48,2.48 0 0 0 -0.54,0.67 v 0.08 l -5.1,-1.23 -6.74,-1.62 a 2.5,2.5 0 0 0 -0.08,-0.66 l 6.82,-3.62 a 2.43,2.43 0 0 0 2.52,0.54 z m -56,-21.2800005 a 2.46,2.46 0 0 0 2.49,0.82 l 3.34,5.8100005 a 2.36,2.36 0 0 0 -0.77,1.48 l -20.58,1.89 v 0 z m -27.79,57.4000005 0.12,-0.08 6.09,4.77 10.29,8.08 a 2.49,2.49 0 0 0 -0.2,0.67 l -2.89,0.22 -5.52,0.42 a 2.48,2.48 0 0 0 -2.79,-1.71 z m 7.48,16.4 a 2.31,2.31 0 0 0 0.52,-1.19 l 8.37,-0.61 a 2.49,2.49 0 0 0 1.63,1.62 l -0.78,11.53 a 2.51,2.51 0 0 0 -0.8,0.19 z m 11.13,11.65 -0.23,-0.1 0.78,-11.67 a 2.5,2.5 0 0 0 1.05,-0.43 l 18.6,16.32 c 0,0.08 0,0.15 -0.06,0.23 l -18.85,-2.32 a 2.5,2.5 0 0 0 -1.29,-2.03 z"
         id="path8"
         style="fill:#00998c;fill-opacity:1"
         inkscape:connector-curvature="0" />
      <g
         id="g130"
         style="fill:#00998c;fill-opacity:1">
        <g
           transform="translate(1.29979,-0.18983208)"
           id="g4611"
           style="fill:#00998c;fill-opacity:1">
          <path
             class="cls-1"
             d="M 134.58621,32.089029 V 20.237643 h 1.03171 v 11.851386 z"
             id="path10"
             style="fill:#00998c;fill-opacity:1;stroke-width:0.66134965"
             inkscape:connector-curvature="0" />
          <path
             class="cls-1"
             d="m 146.54341,20.237643 h 0.9788 v 11.851386 h -0.80685 l -7.51954,-10.105423 v 10.105423 h -0.97219 V 20.237643 h 0.82669 l 7.49971,10.085583 z"
             id="path12"
             style="fill:#00998c;fill-opacity:1;stroke-width:0.66134965"
             inkscape:connector-curvature="0" />
          <path
             class="cls-1"
             d="m 152.15166,31.493815 a 4.8146257,4.8146257 0 0 1 -1.89146,-2.089865 7.4335704,7.4335704 0 0 1 -0.66135,-3.234 7.4335704,7.4335704 0 0 1 0.66135,-3.234 4.7617177,4.7617177 0 0 1 1.89146,-2.129546 5.4759753,5.4759753 0 0 1 2.85703,-0.720871 6.3423434,6.3423434 0 0 1 2.2552,0.383583 4.8675336,4.8675336 0 0 1 1.78564,1.157362 l -0.43649,0.826687 a 5.5619508,5.5619508 0 0 0 -1.69305,-1.111068 5.099006,5.099006 0 0 0 -1.89146,-0.337288 3.9680981,3.9680981 0 0 0 -3.18771,1.322699 5.7008342,5.7008342 0 0 0 -1.13752,3.78292 5.7537422,5.7537422 0 0 0 1.1243,3.802761 3.9680981,3.9680981 0 0 0 3.19432,1.322699 5.0923925,5.0923925 0 0 0 1.89146,-0.337288 5.5487238,5.5487238 0 0 0 1.69305,-1.111067 l 0.43649,0.826687 a 4.8609201,4.8609201 0 0 1 -1.78564,1.157362 6.3423434,6.3423434 0 0 1 -2.25521,0.383582 5.4230674,5.4230674 0 0 1 -2.85041,-0.661349 z"
             id="path14"
             style="fill:#00998c;fill-opacity:1;stroke-width:0.66134965"
             inkscape:connector-curvature="0" />
          <path
             class="cls-1"
             d="M 164.22129,32.089029 V 21.143692 h -4.25248 v -0.906049 h 9.51682 v 0.906049 h -4.23925 v 10.945337 z"
             id="path16"
             style="fill:#00998c;fill-opacity:1;stroke-width:0.66134965"
             inkscape:connector-curvature="0" />
        </g>
        <g
           id="g112"
           style="fill:#00998c;fill-opacity:1">
          <path
             class="cls-1"
             d="m 134.58621,84.44233 v -41.64 h 3.66 v 41.64 z"
             id="path18"
             style="fill:#00998c;fill-opacity:1"
             inkscape:connector-curvature="0" />
          <path
             class="cls-1"
             d="m 170.07621,66.19233 v 18.25 h -3.6 v -18 q 0,-4.25 -1.71,-6.2 -1.71,-1.95 -5.43,-1.95 a 9.17,9.17 0 0 0 -6.82,2.6 9.48,9.48 0 0 0 -2.57,7 v 16.6 h -3.6 v -28.7 h 3.54 v 4.9 a 9.57,9.57 0 0 1 3.93,-4.16 11.9,11.9 0 0 1 5.94,-1.45 q 10.32,0 10.32,11.11 z"
             id="path20"
             style="fill:#00998c;fill-opacity:1"
             inkscape:connector-curvature="0" />
          <path
             class="cls-1"
             d="m 191.44621,81.61233 -0.18,3 a 20.57,20.57 0 0 1 -2.78,0.18 q -4.84,0 -7.32,-2.63 a 10,10 0 0 1 -2.48,-7.17 v -16.3 h -5.67 v -2.9 h 5.67 v -8.86 h 3.6 v 8.86 h 8.39 v 2.9 h -8.39 v 15.83 a 7.77,7.77 0 0 0 1.69,5.47 6.37,6.37 0 0 0 4.93,1.83 18,18 0 0 0 2.54,-0.21 z"
             id="path22"
             style="fill:#00998c;fill-opacity:1"
             inkscape:connector-curvature="0" />
          <path
             class="cls-1"
             d="m 217.66621,70.56233 h -21.68 q 0.18,5.38 2.83,8.24 2.65,2.86 7.56,2.87 a 14.19,14.19 0 0 0 9.39,-3.54 l 1.43,2.86 a 13.86,13.86 0 0 1 -4.81,2.84 17.42,17.42 0 0 1 -6,1.06 q -6.56,0 -10.34,-4 -3.78,-4 -3.78,-10.9 a 17.41,17.41 0 0 1 1.68,-7.83 12.51,12.51 0 0 1 4.73,-5.17 13.14,13.14 0 0 1 7,-1.86 11.06,11.06 0 0 1 8.8,3.66 q 3.19,3.66 3.19,10.22 z m -18.61,-9.92 a 11.93,11.93 0 0 0 -3,7.27 h 18.25 q -0.12,-4.73 -2.36,-7.3 a 8,8 0 0 0 -6.27,-2.62 8.72,8.72 0 0 0 -6.61,2.65 z"
             id="path24"
             style="fill:#00998c;fill-opacity:1"
             inkscape:connector-curvature="0" />
          <path
             class="cls-1"
             d="m 238.14621,58.21233 -2.54,0.24 q -4.67,0.47 -6.76,3 a 9.43,9.43 0 0 0 -2.1,6.2 v 16.79 h -3.6 v -28.65 h 3.54 v 5 a 8.86,8.86 0 0 1 3.69,-4 14.66,14.66 0 0 1 5.94,-1.62 l 1.54,-0.12 z"
             id="path26"
             style="fill:#00998c;fill-opacity:1"
             inkscape:connector-curvature="0" />
          <path
             class="cls-1"
             d="m 240.76621,79.66233 1.89,-3.72 a 19.94,19.94 0 0 0 6.29,3.72 22.67,22.67 0 0 0 7.47,1.12 q 5,0 7.74,-1.95 a 6.37,6.37 0 0 0 2.72,-5.49 4.56,4.56 0 0 0 -1.3,-3.37 9.18,9.18 0 0 0 -3.43,-2.07 51.68,51.68 0 0 0 -5.73,-1.6 55.73,55.73 0 0 1 -7.94,-2.31 12.37,12.37 0 0 1 -5,-3.54 9.1,9.1 0 0 1 -1.92,-6 11,11 0 0 1 1.86,-6.29 12,12 0 0 1 5.32,-4.25 19.88,19.88 0 0 1 8,-1.51 23.5,23.5 0 0 1 8.06,1.36 17.46,17.46 0 0 1 6.35,3.9 l -1.83,3.72 a 20.32,20.32 0 0 0 -6,-3.69 18.45,18.45 0 0 0 -6.59,-1.15 q -4.84,0 -7.59,2 a 6.69,6.69 0 0 0 -2.75,5.7 5.29,5.29 0 0 0 2.42,4.73 23.07,23.07 0 0 0 7.34,2.67 q 5.38,1.3 8.45,2.39 a 12.66,12.66 0 0 1 5.11,3.28 8.23,8.23 0 0 1 2,5.85 10.54,10.54 0 0 1 -1.86,6.2 11.88,11.88 0 0 1 -5.35,4.11 21.14,21.14 0 0 1 -8.15,1.45 q -9.73,0 -15.58,-5.26 z"
             id="path28"
             style="fill:#00998c;fill-opacity:1"
             inkscape:connector-curvature="0" />
          <path
             class="cls-1"
             d="m 285.24621,82.35233 a 16.85,16.85 0 0 1 -6.71,-7.36 25.82,25.82 0 0 1 -2.33,-11.37 25.63,25.63 0 0 1 2.33,-11.34 16.88,16.88 0 0 1 6.71,-7.35 19.91,19.91 0 0 1 10.28,-2.57 22.73,22.73 0 0 1 7.92,1.33 17.52,17.52 0 0 1 6.26,3.93 l -1.83,3.72 a 21.22,21.22 0 0 0 -5.91,-3.66 17.52,17.52 0 0 0 -6.38,-1.12 q -6.85,0 -10.6,4.46 -3.75,4.46 -3.76,12.57 0,8.21 3.75,12.67 3.75,4.46 10.6,4.46 a 17.51,17.51 0 0 0 6.38,-1.12 21.19,21.19 0 0 0 5.91,-3.66 l 1.83,3.72 a 17.51,17.51 0 0 1 -6.26,3.93 22.73,22.73 0 0 1 -7.92,1.33 19.91,19.91 0 0 1 -10.27,-2.57 z"
             id="path30"
             style="fill:#00998c;fill-opacity:1"
             inkscape:connector-curvature="0" />
          <path
             class="cls-1"
             d="m 314.40621,43.21233 h 5.79 v 5.38 h -5.79 z m 0.47,41.23 v -28.77 h 4.78 v 28.77 z"
             id="path32"
             style="fill:#00998c;fill-opacity:1"
             inkscape:connector-curvature="0" />
          <path
             class="cls-1"
             d="m 342.32621,80.84233 -0.24,3.78 a 17.34,17.34 0 0 1 -3,0.24 q -5.2,0 -7.83,-2.72 -2.63,-2.72 -2.63,-7.56 v -15.12 h -5.61 v -3.79 h 5.61 v -8.74 h 4.79 v 8.74 h 8.15 v 3.78 h -8.15 v 14.77 q 0,6.79 6.26,6.79 a 19.22,19.22 0 0 0 2.65,-0.17 z"
             id="path34"
             style="fill:#00998c;fill-opacity:1"
             inkscape:connector-curvature="0" />
          <path
             class="cls-1"
             d="m 368.00621,55.73233 h 4.78 l -17,39.34 h -4.9 l 4.84,-11 -12.18,-28.34 h 5.08 l 9.63,23.51 z"
             id="path36"
             style="fill:#00998c;fill-opacity:1"
             inkscape:connector-curvature="0" />
        </g>
      </g>
    </g>
    <g
       transform="matrix(0.62212718,0,0,0.62212718,50.94003,44.85063)"
       id="g5295"
       style="fill:#00998c;fill-opacity:1">
      <path
         inkscape:connector-curvature="0"
         id="path288"
         style="fill:#00998c;fill-opacity:1;fill-rule:nonzero;stroke:none;stroke-width:1.33333325"
         d="m 134.42042,93.50475 h 12.97334 v 1.09867 h -11.80667 v 10.19199 h 10.156 v 1.09467 h -10.156 v 10.18667 h -1.16667 z" />
      <path
         inkscape:connector-curvature="0"
         id="path290"
         style="fill:#00998c;fill-opacity:1;fill-rule:nonzero;stroke:none;stroke-width:1.33333325"
         d="m 161.80976,99.95675 v 16.12 h -1.12934 v -1.28667 c 0,0 -2.52133,1.57867 -5.30266,1.57867 -4.4,0 -5.30667,-1.776 -5.30667,-8.03067 v -8.38133 h 1.13467 v 8.31866 c 0,5.47867 0.57866,7.06267 4.172,7.06267 2.876,0 5.30266,-1.61467 5.30266,-1.61467 V 99.95675 Z" />
      <path
         inkscape:connector-curvature="0"
         id="path292"
         style="fill:#00998c;fill-opacity:1;fill-rule:nonzero;stroke:none;stroke-width:1.33333325"
         d="m 168.98709,100.98875 v 8.448 c 0,4.80133 0.35467,5.932 2.97467,5.932 0.90533,0 3.172,-0.25467 3.172,-0.25467 l 0.0987,1.02533 c 0,0 -2.14134,0.26 -3.27067,0.26 -2.94267,0 -4.104,-1.09866 -4.104,-5.73866 v -9.672 h -2.55733 v -1.032 h 2.55733 v -5.25467 h 1.12933 v 5.25467 h 5.89067 v 1.032 z" />
      <path
         inkscape:connector-curvature="0"
         id="path294"
         style="fill:#00998c;fill-opacity:1;fill-rule:nonzero;stroke:none;stroke-width:1.33333325"
         d="m 189.55509,99.95675 v 16.12 h -1.13067 v -1.28667 c 0,0 -2.52,1.57867 -5.30666,1.57867 -4.40134,0 -5.308,-1.776 -5.308,-8.03067 v -8.38133 h 1.13066 v 8.31866 c 0,5.47867 0.584,7.06267 4.17734,7.06267 2.87466,0 5.30666,-1.61467 5.30666,-1.61467 V 99.95675 Z" />
      <path
         inkscape:connector-curvature="0"
         id="path296"
         style="fill:#00998c;fill-opacity:1;fill-rule:nonzero;stroke:none;stroke-width:1.33333325"
         d="m 194.65909,99.95675 h 1.136 v 2.51066 c 0,0 2.844,-2.15599 6.40533,-2.83333 v 1.16134 c -3.17066,0.64133 -6.40533,2.73999 -6.40533,2.73999 v 12.54134 h -1.136 z" />
      <path
         inkscape:connector-curvature="0"
         id="path298"
         style="fill:#00998c;fill-opacity:1;fill-rule:nonzero;stroke:none;stroke-width:1.33333325"
         d="m 215.51909,107.43675 c 0,-4.932 -1.57867,-6.74 -4.94267,-6.74 -3.24,0 -5.344,1.83866 -5.344,6.74 z m 0.52,7.60933 0.0627,1.03067 c 0,0 -3.62533,0.292 -5.98933,0.292 -4.812,-0.036 -6.07867,-3.09334 -6.07867,-8.34934 0,-6.38533 2.84933,-8.35333 6.54267,-8.35333 3.97333,0 6.14,2.156 6.14,7.73867 v 1.06266 h -11.484 c 0,4.448 1.16666,6.86534 4.916,6.86534 2.26133,0 5.89066,-0.28667 5.89066,-0.28667" />
      <path
         inkscape:connector-curvature="0"
         id="path300"
         style="fill:#00998c;fill-opacity:1;fill-rule:nonzero;stroke:none;stroke-width:1.33333325"
         d="m 228.47644,93.50475 h 1.16666 v 22.57333 h -1.16666 z" />
      <path
         inkscape:connector-curvature="0"
         id="path302"
         style="fill:#00998c;fill-opacity:1;fill-rule:nonzero;stroke:none;stroke-width:1.33333325"
         d="m 235.1751,116.07675 v -16.12 h 1.13066 v 1.28666 c 0,0 2.88,-1.57733 5.66134,-1.57733 4.4,0 5.30666,1.776 5.30666,8.03067 v 8.38 h -1.13466 v -8.32267 c 0,-5.47333 -0.57867,-7.05733 -4.172,-7.05733 -2.88,0 -5.66134,1.61466 -5.66134,1.61466 v 13.76534 z" />
      <path
         inkscape:connector-curvature="0"
         id="path304"
         style="fill:#00998c;fill-opacity:1;fill-rule:nonzero;stroke:none;stroke-width:1.33333325"
         d="m 254.12843,100.98875 v 8.448 c 0,4.80133 0.348,5.932 2.97333,5.932 0.90134,0 3.172,-0.25467 3.172,-0.25467 l 0.0987,1.02533 c 0,0 -2.14,0.26 -3.27067,0.26 -2.948,0 -4.10933,-1.09866 -4.10933,-5.73866 v -9.672 h -2.55733 v -1.032 h 2.55733 v -5.25467 h 1.136 v 5.25467 h 5.88533 v 1.032 z" />
      <path
         inkscape:connector-curvature="0"
         id="path306"
         style="fill:#00998c;fill-opacity:1;fill-rule:nonzero;stroke:none;stroke-width:1.33333325"
         d="m 273.9151,107.43675 c 0,-4.932 -1.57867,-6.74 -4.94267,-6.74 -3.24533,0 -5.344,1.83866 -5.344,6.74 z m 0.52,7.60933 0.0627,1.03067 c 0,0 -3.62533,0.292 -5.98933,0.292 -4.812,-0.036 -6.07867,-3.09334 -6.07867,-8.34934 0,-6.38533 2.84934,-8.35333 6.54267,-8.35333 3.97333,0 6.14,2.156 6.14,7.73867 v 1.06266 h -11.484 c 0,4.448 1.16667,6.86534 4.916,6.86534 2.26133,0 5.89067,-0.28667 5.89067,-0.28667" />
      <path
         inkscape:connector-curvature="0"
         id="path308"
         style="fill:#00998c;fill-opacity:1;fill-rule:nonzero;stroke:none;stroke-width:1.33333325"
         d="m 279.3471,99.95675 h 1.12933 v 2.51066 c 0,0 2.84933,-2.15599 6.40667,-2.83333 v 1.16134 c -3.16667,0.64133 -6.40667,2.73999 -6.40667,2.73999 v 12.54134 h -1.12933 z" />
      <path
         inkscape:connector-curvature="0"
         id="path310"
         style="fill:#00998c;fill-opacity:1;fill-rule:nonzero;stroke:none;stroke-width:1.33333325"
         d="m 289.9511,116.07675 v -16.12 h 1.136 v 1.28666 c 0,0 2.88,-1.57733 5.66133,-1.57733 4.39467,0 5.30133,1.776 5.30133,8.03067 v 8.38 h -1.12933 v -8.32267 c 0,-5.47333 -0.584,-7.05733 -4.172,-7.05733 -2.88133,0 -5.66133,1.61466 -5.66133,1.61466 v 13.76534 z" />
      <path
         inkscape:connector-curvature="0"
         id="path312"
         style="fill:#00998c;fill-opacity:1;fill-rule:nonzero;stroke:none;stroke-width:1.33333325"
         d="m 317.7951,107.43675 c 0,-4.932 -1.584,-6.74 -4.948,-6.74 -3.23467,0 -5.33867,1.83866 -5.33867,6.74 z m 0.52,7.60933 0.0627,1.03067 c 0,0 -3.624,0.292 -5.98933,0.292 -4.812,-0.036 -6.07733,-3.09334 -6.07733,-8.34934 0,-6.38533 2.848,-8.35333 6.536,-8.35333 3.97866,0 6.14533,2.156 6.14533,7.73867 v 1.06266 h -11.484 c 0,4.448 1.16133,6.86534 4.916,6.86534 2.26133,0 5.89067,-0.28667 5.89067,-0.28667" />
      <path
         inkscape:connector-curvature="0"
         id="path314"
         style="fill:#00998c;fill-opacity:1;fill-rule:nonzero;stroke:none;stroke-width:1.33333325"
         d="m 325.13376,100.98875 v 8.448 c 0,4.80133 0.35334,5.932 2.97334,5.932 0.90666,0 3.172,-0.25467 3.172,-0.25467 l 0.0987,1.02533 c 0,0 -2.14,0.26 -3.27066,0.26 -2.94267,0 -4.104,-1.09866 -4.104,-5.73866 v -9.672 h -2.56267 v -1.032 h 2.56267 v -5.25467 h 1.13066 v 5.25467 h 5.89067 v 1.032 z" />
      <path
         inkscape:connector-curvature="0"
         id="path316"
         style="fill:#00998c;fill-opacity:1;fill-rule:nonzero;stroke:none;stroke-width:1.33333325"
         d="m 342.98176,116.07675 h -1.12933 v -15.088 h -2.23467 v -1.032 h 2.23467 v -1.968 c 0,-4.64133 1.156,-5.74 4.104,-5.74 1.13466,0 2.97333,0.0987 2.97333,0.0987 v 1 c 0,0 -2.06667,-0.0667 -2.97333,-0.0667 -2.20267,0 -2.97467,0.87466 -2.97467,4.73866 v 1.93734 h 5.24 v 1.032 h -5.24 z" />
      <path
         inkscape:connector-curvature="0"
         id="path318"
         style="fill:#00998c;fill-opacity:1;fill-rule:nonzero;stroke:none;stroke-width:1.33333325"
         d="m 362.29509,107.72875 c 0,-5.42267 -1.23466,-7.032 -5.37466,-7.032 -4.14134,0 -5.36534,1.60933 -5.36534,7.032 0,5.54133 0.57867,7.60933 5.36534,7.60933 4.79066,0 5.37466,-2.068 5.37466,-7.60933 m 1.192,0 c 0,6.47866 -1.224,8.63466 -6.56666,8.63466 -5.33867,0 -6.568,-2.156 -6.568,-8.63466 0,-5.96934 1.78133,-8.06267 6.568,-8.06267 4.79066,0 6.56666,2.09333 6.56666,8.06267" />
      <path
         inkscape:connector-curvature="0"
         id="path320"
         style="fill:#00998c;fill-opacity:1;fill-rule:nonzero;stroke:none;stroke-width:1.33333325"
         d="m 367.97776,99.95675 h 1.12933 v 2.51066 c 0,0 2.844,-2.15599 6.40667,-2.83333 v 1.16134 c -3.16667,0.64133 -6.40667,2.73999 -6.40667,2.73999 v 12.54134 h -1.12933 z" />
      <path
         inkscape:connector-curvature="0"
         id="path322"
         style="fill:#00998c;fill-opacity:1;fill-rule:nonzero;stroke:none;stroke-width:1.33333325"
         d="m 398.24843,94.79542 c 0,0 -4.43334,-0.54667 -6.308,-0.54667 -3.692,0 -5.76,1.28667 -5.76,4.51067 0,3.93199 2.00533,4.42133 6.08266,5.06799 4.26667,0.67734 6.6,1.64 6.6,5.70267 0,5.032 -2.396,6.77067 -6.86,6.77067 -2.42666,0 -6.92666,-0.51067 -6.92666,-0.51067 l 0.13466,-1.12933 c 0,0 4.464,0.54666 6.76134,0.54666 3.68666,0 5.66133,-1.54666 5.66133,-5.57866 0,-3.29067 -1.68267,-4.03067 -5.66133,-4.64 -4.43867,-0.68267 -7.02134,-1.42267 -7.02134,-6.16133 0,-4.156 2.68267,-5.67734 6.98934,-5.67734 2.48933,0 6.43733,0.52134 6.43733,0.52134 z" />
      <path
         inkscape:connector-curvature="0"
         id="path324"
         style="fill:#00998c;fill-opacity:1;fill-rule:nonzero;stroke:none;stroke-width:1.33333325"
         d="m 403.15376,116.07675 v -16.12 h 1.13067 v 1.28666 c 0,0 2.52133,-1.57733 5.30666,-1.57733 2.396,0 3.55734,0.51467 4.33334,1.73867 0,0 2.78666,-1.73867 5.95333,-1.73867 4.40133,0 5.308,1.776 5.308,8.03067 v 8.38 h -1.13067 v -8.32267 c 0,-5.47333 -0.58266,-7.05733 -4.17733,-7.05733 -3.14,0 -5.56267,1.584 -5.56267,1.584 0.448,1.224 0.584,2.99466 0.584,5.416 v 8.38 h -1.136 v -8.32267 c 0,-5.47333 -0.57733,-7.05733 -4.172,-7.05733 -2.88,0 -5.30666,1.61466 -5.30666,1.61466 v 13.76534 z" />
      <path
         inkscape:connector-curvature="0"
         id="path326"
         style="fill:#00998c;fill-opacity:1;fill-rule:nonzero;stroke:none;stroke-width:1.33333325"
         d="m 433.71109,108.01408 c -2.52533,0.26133 -3.396,1.42267 -3.396,3.64667 0,2.35333 1.09467,3.67733 3.07334,3.67733 3.036,0 6.344,-1.324 6.344,-1.324 v -6.60933 z m 7.152,5.96933 c 0.0933,0.932 1.29067,1.25467 2.42667,1.35467 l -0.068,1 c -1.39067,0 -2.62,-0.35467 -3.33333,-1.35467 0,0 -3.29734,1.38534 -6.536,1.38534 -2.64667,0 -4.24,-1.58267 -4.24,-4.708 0,-2.74 1.29733,-4.32267 4.46933,-4.64667 l 6.15067,-0.64 v -1.67733 c 0,-2.80667 -1.23467,-3.932 -3.59334,-3.932 -2.36533,0 -6.12,0.54666 -6.12,0.54666 l -0.0947,-1.06799 c 0,0 3.62533,-0.57734 6.21466,-0.57734 3.26534,0 4.724,1.708 4.724,5.03067 z" />
      <path
         inkscape:connector-curvature="0"
         id="path328"
         style="fill:#00998c;fill-opacity:1;fill-rule:nonzero;stroke:none;stroke-width:1.33333325"
         d="m 446.12843,99.95675 h 1.13466 v 2.51066 c 0,0 2.844,-2.15599 6.40667,-2.83333 v 1.16134 c -3.172,0.64133 -6.40667,2.73999 -6.40667,2.73999 v 12.54134 h -1.13466 z" />
      <path
         inkscape:connector-curvature="0"
         id="path330"
         style="fill:#00998c;fill-opacity:1;fill-rule:nonzero;stroke:none;stroke-width:1.33333325"
         d="m 458.80576,100.98875 v 8.448 c 0,4.80133 0.35333,5.932 2.97333,5.932 0.90667,0 3.172,-0.25467 3.172,-0.25467 l 0.0987,1.02533 c 0,0 -2.14,0.26 -3.27067,0.26 -2.94266,0 -4.104,-1.09866 -4.104,-5.73866 v -9.672 h -2.56266 v -1.032 h 2.56266 v -5.25467 h 1.13067 v 5.25467 h 5.89067 v 1.032 z" />
      <path
         inkscape:connector-curvature="0"
         id="path332"
         style="fill:#00998c;fill-opacity:1;fill-rule:nonzero;stroke:none;stroke-width:1.33333325"
         d="m 488.55509,115.72341 c -1.61467,0.32267 -3.78133,0.64534 -5.984,0.64534 -6.66133,0 -8.052,-4.32267 -8.052,-11.47867 0,-7.032 1.16133,-11.672 8.052,-11.672 2.26533,0 4.5,0.32267 5.984,0.60934 l -0.0933,1.12933 c -1.39067,-0.29067 -3.94267,-0.64533 -5.89067,-0.64533 -6.07867,0 -6.82267,4.16133 -6.82267,10.57866 0,6.448 0.87467,10.38 6.82267,10.38 2.04133,0 4.208,-0.31733 5.89067,-0.64133 z" />
      <path
         inkscape:connector-curvature="0"
         id="path334"
         style="fill:#00998c;fill-opacity:1;fill-rule:nonzero;stroke:none;stroke-width:1.33333325"
         d="m 492.52976,99.95675 h 1.12933 v 16.12 h -1.12933 z m 0,-6.452 h 1.12933 v 1.77067 h -1.12933 z" />
      <path
         inkscape:connector-curvature="0"
         id="path336"
         style="fill:#00998c;fill-opacity:1;fill-rule:nonzero;stroke:none;stroke-width:1.33333325"
         d="m 500.84176,100.98875 v 8.448 c 0,4.80133 0.35466,5.932 2.97333,5.932 0.90667,0 3.172,-0.25467 3.172,-0.25467 l 0.1,1.02533 c 0,0 -2.14133,0.26 -3.272,0.26 -2.94267,0 -4.104,-1.09866 -4.104,-5.73866 v -9.672 h -2.56267 v -1.032 h 2.56267 v -5.25467 h 1.13067 v 5.25467 h 5.88533 v 1.032 z" />
      <path
         inkscape:connector-curvature="0"
         id="path338"
         style="fill:#00998c;fill-opacity:1;fill-rule:nonzero;stroke:none;stroke-width:1.33333325"
         d="m 509.82576,99.95675 h 1.13066 v 16.12 h -1.13066 z m 0,-6.452 h 1.13066 v 1.77067 h -1.13066 z" />
      <path
         inkscape:connector-curvature="0"
         id="path340"
         style="fill:#00998c;fill-opacity:1;fill-rule:nonzero;stroke:none;stroke-width:1.33333325"
         d="m 526.87242,107.43675 c 0,-4.932 -1.58266,-6.74 -4.94266,-6.74 -3.23867,0 -5.34267,1.83866 -5.34267,6.74 z m 0.52134,7.60933 0.0627,1.03067 c 0,0 -3.62533,0.292 -5.98933,0.292 -4.81333,-0.036 -6.07867,-3.09334 -6.07867,-8.34934 0,-6.38533 2.84934,-8.35333 6.54134,-8.35333 3.97466,0 6.14133,2.156 6.14133,7.73867 v 1.06266 h -11.484 c 0,4.448 1.16667,6.86534 4.916,6.86534 2.26,0 5.89067,-0.28667 5.89067,-0.28667" />
      <path
         inkscape:connector-curvature="0"
         id="path342"
         style="fill:#00998c;fill-opacity:1;fill-rule:nonzero;stroke:none;stroke-width:1.33333325"
         d="m 542.42442,101.21275 c 0,0 -3.296,-0.516 -5.5,-0.516 -2.072,0 -4.33333,0.61466 -4.33333,3.224 0,2 0.876,2.61466 4.59467,3.188 4.23866,0.68666 5.89066,1.296 5.89066,4.328 0,3.77066 -2.33866,4.932 -6.152,4.932 -1.848,0 -5.33733,-0.516 -5.33733,-0.516 l 0.124,-1.06267 c 0,0 3.5,0.548 5.152,0.548 3.04133,0 5.00933,-0.70933 5.00933,-3.808 0,-2.32267 -1.16133,-2.77067 -5.00933,-3.34933 -3.78667,-0.58267 -5.46933,-1.19734 -5.46933,-4.192 0,-3.41733 2.912,-4.32267 5.53066,-4.32267 2.49067,0 5.568,0.484 5.568,0.484 z" />
    </g>
  </g>
</svg>
